<svg viewBox="0 0 30 6" xmlns="http://www.w3.org/2000/svg">
<path id="o1" d="m 3.1726654,0.2640744 c 0.5067781,0 0.9814399,0.092791 1.4239855,0.27837319 0.442539,0.18558217 0.8029866,0.44610658 1.0813429,0.78157341 0.2855052,0.3354736 0.4461032,0.7209087 0.4817939,1.1563054 0.014277,0.2141307 0.021416,0.3711609 0.021416,0.4710908 0,0.121343 -0.00714,0.3104928 -0.021416,0.5674495 C 6.1312392,3.9542635 5.9813477,4.3396986 5.7101134,4.6751722 5.438879,5.0106457 5.0784314,5.2711702 4.6287705,5.4567456 4.1862316,5.6423278 3.7008801,5.7351188 3.1727159,5.7351188 2.651667,5.7351188 2.1698562,5.63876 1.7272836,5.4460424 1.2918869,5.2604603 0.93501377,4.9999359 0.65666415,4.664469 0.38542977,4.3289955 0.2319706,3.9471348 0.19628666,3.518887 0.18915156,3.397544 0.1855835,3.2226718 0.1855835,2.9942703 c 0,-0.2284083 0.003568,-0.3997127 0.0107032,-0.5139135 C 0.23197735,2.0378179 0.38186879,1.6488083 0.64596099,1.313328 0.91719534,0.97785445 1.2704941,0.72089769 1.705857,0.54245771 2.148396,0.35687558 2.637322,0.26435513 3.172635,0.26435513 Z M 1.9949132,3.5295497 c 0,0.2855052 0.110633,0.5139102 0.3318991,0.6852146 0.221266,0.1641691 0.5032036,0.2462536 0.8458126,0.2462536 0.3283314,0 0.5995624,-0.082084 0.813693,-0.2462536 0.2141307,-0.164169 0.3390413,-0.392574 0.374732,-0.6852146 0.014277,-0.09993 0.021416,-0.253389 0.021416,-0.4603775 0,-0.1498915 -0.00714,-0.3533156 -0.021416,-0.6102723 C 4.3396365,2.1662524 4.221865,1.944983 4.0077344,1.7950915 3.8007392,1.6380647 3.5223693,1.5595512 3.1726249,1.5595512 c -0.3140605,0 -0.5817238,0.082085 -0.8029899,0.2462536 C 2.1555044,1.9628317 2.0305937,2.18053 1.994903,2.4588999 1.97349,2.6373399 1.962783,2.8193508 1.962783,3.004933 c 0,0.17844 0.010706,0.3533122 0.03212,0.5246167 z" fill="currentColor" />
<path id="s" d="m 9.1765858,4.5788336 c 0.5567396,0 0.8351092,-0.1356172 0.8351092,-0.4068516 0,-0.1784399 -0.1177716,-0.3176248 -0.3533153,-0.4175547 C 9.4299715,3.647362 9.19086,3.5688486 8.9410455,3.518887 8.4770935,3.4046862 8.109497,3.2976209 7.8382558,3.197691 7.5741637,3.0977611 7.3457588,2.9478697 7.1530412,2.7480167 6.9603236,2.5410215 6.8639648,2.2662194 6.8639648,1.9236104 c 0,-0.2855053 0.085653,-0.5531685 0.2569568,-0.8029899 0.1713045,-0.24982132 0.4425355,-0.45324538 0.813693,-0.61027227 0.3782998,-0.16416906 0.8598778,-0.2460108 1.4451997,-0.2460108 0.3354735,0 0.6569017,0.028309 0.9638217,0.0854128 0.314061,0.0571038 0.571018,0.13204947 0.77087,0.22483716 0.256957,0.12847838 0.385435,0.31048945 0.385435,0.54603311 0,0.092788 -0.02498,0.2034208 -0.07494,0.3318991 -0.08566,0.199853 -0.256957,0.2997795 -0.513914,0.2997795 -0.149893,0 -0.303352,-0.02498 -0.460378,-0.074942 -0.03569,-0.00713 -0.117775,-0.032117 -0.246253,-0.074942 -0.121344,-0.042826 -0.2533897,-0.074945 -0.396139,-0.096359 -0.1356138,-0.021413 -0.2747988,-0.03212 -0.4175547,-0.03212 -0.499636,0 -0.7494539,0.1356172 -0.7494539,0.4068515 0,0.1284784 0.074945,0.2248372 0.2248372,0.2890764 0.1498915,0.057104 0.4354001,0.1391883 0.8565259,0.2462536 0.6209785,0.1498915 1.1134805,0.3461767 1.4775025,0.5888559 0.371157,0.2426791 0.556736,0.6209653 0.556736,1.1348586 0,0.4996359 -0.224837,0.8886455 -0.674512,1.1670288 -0.442542,0.2855053 -1.07421,0.4282579 -1.8950079,0.4282579 -0.9421747,0 -1.6488058,-0.1713045 -2.1198933,-0.5139135 C 6.8605017,5.0784493 6.7570041,4.9107125 6.7570041,4.7179949 c 0,-0.121343 0.039259,-0.2391147 0.1177752,-0.3533155 0.121343,-0.1927176 0.3033539,-0.2890764 0.5460331,-0.2890764 0.1142008,0 0.2498179,0.03212 0.4068516,0.096359 0.2498213,0.1356138 0.4675196,0.2391114 0.653095,0.3104928 0.1927176,0.064239 0.4246936,0.096359 0.695928,0.096359 z" fill="currentColor" />
<path id="o2" d="m 15.319791,0.2640744 q 0.760166,0 1.423982,0.27837319 0.663809,0.2783732 1.081343,0.78157341 0.428258,0.5032104 0.481794,1.1563054 0.02142,0.321196 0.02142,0.4710908 0,0.1820144 -0.02142,0.5674495 -0.04282,0.6530951 -0.449674,1.1563055 -0.406852,0.5032103 -1.081343,0.7815734 -0.663807,0.2783732 -1.456054,0.2783732 -0.781573,0 -1.445432,-0.2890764 Q 13.221312,5.1676692 12.803789,4.664469 12.396937,4.1612586 12.343411,3.518887 q -0.0107,-0.1820144 -0.0107,-0.5246167 0,-0.3426124 0.0107,-0.5139135 0.05354,-0.6638084 0.449675,-1.1670288 0.406851,-0.50321037 1.059998,-0.77087029 0.663808,-0.27837319 1.466778,-0.27837319 z m -1.177752,3.2654753 q 0,0.4282579 0.331899,0.6852146 0.331899,0.2462536 0.845812,0.2462536 0.492497,0 0.813692,-0.2462536 0.321197,-0.2462536 0.374732,-0.6852146 0.02142,-0.1498948 0.02142,-0.4603775 0,-0.2248372 -0.02142,-0.6102723 -0.03212,-0.4389712 -0.353314,-0.6638084 -0.310493,-0.2355403 -0.83511,-0.2355403 -0.47109,0 -0.80299,0.2462536 -0.321195,0.2355403 -0.374731,0.6530951 -0.03212,0.2676599 -0.03212,0.5460331 0,0.2676599 0.03212,0.5246167 z" fill="currentColor" />
<path id="dot" d="m 21.351388,0.2652219 c -0.316961,0 -0.621367,0.0303666 -0.908203,0.0917969 -0.299228,0.0596509 -0.568544,0.16513325 -0.798828,0.31445312 -0.229589,0.14744995 -0.411778,0.33890628 -0.542969,0.56640618 -7.55e-4,0.00177 -0.0032,0.00408 -0.0039,0.00586 -0.132043,0.2385586 -0.193363,0.5147897 -0.193359,0.8242188 v 2.9121094 c 2e-6,0.2203239 0.101324,0.4457046 0.310546,0.5800781 0.172817,0.1109831 0.389978,0.1757812 0.611328,0.1757812 0.112345,0 0.217434,-0.023328 0.3125,-0.052734 0.106993,-0.027708 0.212311,-0.070308 0.298829,-0.1328126 0.09108,-0.065807 0.165409,-0.1508726 0.214843,-0.2460937 0.05322,-0.1025326 0.07422,-0.2131581 0.07422,-0.3242187 V 2.0679563 c 1.1e-5,-0.2002939 0.05475,-0.284753 0.130859,-0.3378906 0.102601,-0.067986 0.253126,-0.1132813 0.494141,-0.1132813 0.231467,0 0.363959,0.042434 0.451172,0.1054687 0.0014,5.984e-4 0.0025,0.00137 0.0039,0.00195 0.07474,0.052544 0.128906,0.141352 0.128907,0.34375 v 1.8652344 c 0,0.3082342 0.05864,0.5824358 0.191406,0.8222656 7.12e-4,0.00178 0.0012,0.00409 0.002,0.00586 0.130854,0.2269047 0.312153,0.4201104 0.542969,0.5683593 0.232422,0.1506871 0.505548,0.2532729 0.802734,0.3125 0.286353,0.061345 0.587294,0.09375 0.904297,0.09375 0.310288,0 0.606846,-0.033287 0.886719,-0.095703 h 0.002 c 0.290061,-0.059587 0.554018,-0.1615001 0.779297,-0.3105469 0.229856,-0.14769 0.411817,-0.3433503 0.539062,-0.5722656 0.137687,-0.2401819 0.199212,-0.5161864 0.199219,-0.8242187 v -1.8671876 -0.00195 c 0.0013,-0.1992402 0.05481,-0.2891296 0.126953,-0.3398437 0.0014,-5.817e-4 0.0045,-0.00135 0.0059,-0.00195 0.08734,-0.0631 0.219688,-0.1054687 0.451172,-0.1054687 0.241025,0 0.389659,0.045329 0.492188,0.1132813 0.07713,0.053829 0.132812,0.1388681 0.132812,0.3378906 v 2.9121094 c 0,0.1110842 0.02103,0.2217316 0.07422,0.3242187 0.04945,0.095273 0.123787,0.1803026 0.214844,0.2460937 0.08338,0.060238 0.188522,0.1045893 0.296875,0.1328126 0.102209,0.031389 0.208453,0.050781 0.314453,0.050781 0.218223,0 0.436539,-0.061561 0.611328,-0.1738281 0.210905,-0.1353398 0.308594,-0.361779 0.308594,-0.5800781 v -2.912113 c 0,-0.3082343 -0.05865,-0.584389 -0.191406,-0.8242188 -7.13e-4,-0.00178 -0.0012,-0.00409 -0.002,-0.00586 C 29.489043,1.0091182 29.304617,0.81829912 29.075997,0.6714719 28.845762,0.52214808 28.574448,0.41665826 28.275216,0.35701878 27.988414,0.29557997 27.685983,0.2652219 27.368966,0.2652219 c -0.310303,0 -0.606852,0.0313345 -0.886719,0.09375 -0.292524,0.0598901 -0.556646,0.16387998 -0.78125,0.3125 -0.229676,0.14750549 -0.408296,0.3420906 -0.535156,0.5703125 -0.132991,0.2320024 -0.196805,0.4986267 -0.201172,0.7929687 -7.44e-4,0.00118 -0.0013,0.00272 -0.002,0.00391 v 1.4375 l 0.002,0.00195 v 0.4550782 c 2.7e-5,0.2023616 -0.05415,0.2892409 -0.128906,0.3417968 -0.0014,5.817e-4 -0.0025,0.00135 -0.0039,0.00195 -0.08733,0.063097 -0.219688,0.1074218 -0.451172,0.1074218 -0.241023,0 -0.391615,-0.047283 -0.494141,-0.1152344 C 23.81047,4.2160175 23.755685,4.1334562 23.755685,3.9331907 V 2.0386594 c -7.23e-4,-0.00119 -0.0013,-0.00273 -0.002,-0.00391 -0.0043,-0.294333 -0.06617,-0.5609578 -0.199172,-0.792965 C 23.427661,1.013554 23.247097,0.81897813 23.017405,0.6714719 22.793301,0.52316949 22.529883,0.41892135 22.238107,0.3589719 h -0.002 C 21.956235,0.296556 21.66164,0.2652219 21.351341,0.2652219 Z" fill="currentColor" />
</svg>
