<svg viewBox="0 0 28 12" xmlns="http://www.w3.org/2000/svg">
 <path id="o1" d="m3.0718 0.043949q0.75142 0 1.4076 0.27517 0.65617 0.27517 1.0689 0.77258 0.42333 0.49742 0.47625 1.143 0.02117 0.3175 0.02117 0.46567 0 0.17992-0.02117 0.56092-0.04233 0.64558-0.4445 1.143t-1.0689 0.77258q-0.65617 0.27517-1.4393 0.27517-0.77258 0-1.4288-0.28575-0.64558-0.27517-1.0583-0.77258-0.40217-0.49742-0.45508-1.1324-0.01058-0.17992-0.01058-0.51858 0-0.33867 0.01058-0.508 0.05292-0.65617 0.4445-1.1536 0.40217-0.49742 1.0477-0.762 0.65617-0.27517 1.4499-0.27517zm-1.1642 3.2279q0 0.42333 0.32808 0.67733 0.32808 0.24342 0.83608 0.24342 0.48683 0 0.80433-0.24342t0.37042-0.67733q0.02117-0.14817 0.02117-0.45508 0-0.22225-0.02117-0.60325-0.03175-0.43392-0.34925-0.65617-0.30692-0.23283-0.8255-0.23283-0.46567 0-0.79375 0.24342-0.3175 0.23283-0.37042 0.64558-0.03175 0.26458-0.03175 0.53975 0 0.26458 0.03175 0.51858z" fill="currentColor"/>
 <path id="s" d="m8.9602 4.3091q0.8255 0 0.8255-0.40217 0-0.26458-0.34925-0.41275-0.33867-0.15875-0.70908-0.23283-0.68792-0.16933-1.0901-0.3175-0.39158-0.14817-0.67733-0.4445-0.28575-0.30692-0.28575-0.81492 0-0.42333 0.254-0.79375 0.254-0.37042 0.80433-0.60325 0.56092-0.24342 1.4288-0.24342 0.49742 0 0.9525 0.08467 0.46567 0.08467 0.762 0.22225 0.381 0.1905 0.381 0.53975 0 0.13758-0.07408 0.32808-0.127 0.29633-0.508 0.29633-0.22225 0-0.45508-0.07408-0.05292-0.01058-0.24342-0.07408-0.17992-0.0635-0.39158-0.09525-0.20108-0.03175-0.41275-0.03175-0.74083 0-0.74083 0.40217 0 0.1905 0.22225 0.28575 0.22225 0.08467 0.84667 0.24342 0.92075 0.22225 1.4605 0.58208 0.55033 0.35983 0.55033 1.1218 0 0.74083-0.66675 1.1536-0.65617 0.42333-1.8732 0.42333-1.397 0-2.0955-0.508-0.30692-0.21167-0.30692-0.49742 0-0.17992 0.11642-0.34925 0.17992-0.28575 0.53975-0.28575 0.16933 0 0.40217 0.09525 0.37042 0.20108 0.64558 0.30692 0.28575 0.09525 0.68792 0.09525z" fill="currentColor"/>
 <path id="o2" d="m14.986 0.043949q0.75142 0 1.4076 0.27517 0.65617 0.27517 1.0689 0.77258 0.42333 0.49742 0.47625 1.143 0.02117 0.3175 0.02117 0.46567 0 0.17992-0.02117 0.56092-0.04233 0.64558-0.4445 1.143t-1.0689 0.77258q-0.65617 0.27517-1.4393 0.27517-0.77258 0-1.4288-0.28575-0.64558-0.27517-1.0583-0.77258-0.40217-0.49742-0.45508-1.1324-0.01058-0.17992-0.01058-0.51858 0-0.33867 0.01058-0.508 0.05292-0.65617 0.4445-1.1536 0.40217-0.49742 1.0478-0.762 0.65617-0.27517 1.4499-0.27517zm-1.1642 3.2279q0 0.42333 0.32808 0.67733 0.32808 0.24342 0.83608 0.24342 0.48683 0 0.80433-0.24342t0.37042-0.67733q0.02117-0.14817 0.02117-0.45508 0-0.22225-0.02117-0.60325-0.03175-0.43392-0.34925-0.65617-0.30692-0.23283-0.8255-0.23283-0.46567 0-0.79375 0.24342-0.3175 0.23283-0.37042 0.64558-0.03175 0.26458-0.03175 0.53975 0 0.26458 0.03175 0.51858z" fill="currentColor"/>
 <path id="m" d="m18.483 0.95413q0-0.381 0.26458-0.58208t0.64558-0.20108q0.29633 0 0.48683 0.127 0.20108 0.127 0.27517 0.3175 0.23283-0.28575 0.56092-0.39158 0.32808-0.11642 0.78317-0.11642 1.2382 0 1.9156 0.71967 0.60325-0.71967 1.778-0.71967 1.2065 0 1.9473 0.58208 0.74083 0.58208 0.74083 1.6298v2.3601q0 0.381-0.1905 0.5715-0.1905 0.20108-0.68792 0.20108-0.41275 0-0.66675-0.20108-0.24342-0.1905-0.24342-0.55033v-2.4024q0-0.42333-0.26458-0.66675t-0.71967-0.24342q-0.47625 0-0.75142 0.254-0.26458 0.254-0.26458 0.68792v2.4024q0 0.37042-0.21167 0.53975-0.21167 0.17992-0.70908 0.17992-0.42333 0-0.65617-0.1905-0.22225-0.17992-0.22225-0.51858v-2.4448q0-0.42333-0.26458-0.66675t-0.70908-0.24342q-1.0266 0-1.0266 1.0372v2.1272q0 0.45508-0.22225 0.67733-0.21167 0.22225-0.70908 0.22225-0.40217 0-0.64558-0.1905-0.23283-0.17992-0.23283-0.51858z" fill="currentColor"/>
 <path id="dot" d="m12.947 6.9437q0-0.42333 0.29633-0.66675t0.75142-0.24342q0.45508 0 0.75142 0.24342 0.30692 0.24342 0.30692 0.66675t-0.30692 0.65617q-0.29633 0.24342-0.75142 0.24342-0.45508 0-0.75142-0.24342-0.29633-0.23283-0.29633-0.65617z" fill="currentColor"/>
 <path id="run" d="m9.2717 6.0323c-0.46238 0-0.89698 0.03351-1.3034 0.10077-0.40633 0.062096-0.75977 0.16828-1.061 0.31832-0.29425 0.14487-0.52911 0.33354-0.70426 0.56638-0.16814 0.23284-0.25219 0.51737-0.25219 0.85372v3.5084c0 0.19662 0.094395 0.34148 0.28356 0.43461 0.18917 0.09313 0.4027 0.13953 0.64092 0.13953 0.1121 0 0.22088-0.01289 0.32598-0.03876 0.1121-0.02069 0.20994-0.05421 0.29401-0.10077 0.084066-0.04657 0.15084-0.10636 0.19989-0.1788 0.049047-0.07244 0.073793-0.1575 0.073793-0.2558v-3.5084c0-0.30528 0.13297-0.52745 0.39919-0.66716 0.27324-0.1397 0.64103-0.20981 1.1034-0.20981 0.4484 0 0.79836 0.070105 1.0505 0.20981 0.25923 0.1397 0.38932 0.36188 0.38932 0.66716v2.2454c0 0.33632 0.08405 0.62088 0.25218 0.85372 0.17516 0.23284 0.40943 0.42151 0.70366 0.56638 0.30126 0.15005 0.65526 0.25624 1.0616 0.31832 0.40633 0.06726 0.84084 0.10077 1.3033 0.10077 0.44837 0 0.86865-0.03351 1.261-0.10077 0.39934-0.06209 0.74585-0.16828 1.0401-0.31832 0.29425-0.14488 0.52563-0.33354 0.69378-0.56638 0.17516-0.23284 0.26263-0.51737 0.26264-0.85372l-5.95e-4 -2.2506c0.0015-0.30242 0.13108-0.52314 0.38872-0.662 0.25222-0.1397 0.60217-0.20981 1.0506-0.20981 0.46238 0 0.83022 0.070108 1.1034 0.20981 0.26623 0.1397 0.39919 0.36188 0.39919 0.66716v3.5084c0 0.09831 0.02475 0.18336 0.07379 0.2558s0.11582 0.13224 0.19989 0.1788c0.08407 0.04657 0.18191 0.08008 0.29401 0.10077 0.10508 0.02588 0.21388 0.03876 0.32598 0.03876 0.2382 0 0.45176-0.04639 0.64092-0.13953 0.18917-0.09313 0.28356-0.23799 0.28356-0.43461v-3.5084c0-0.33632-0.08404-0.62088-0.25218-0.85372-0.17514-0.23284-0.41-0.42151-0.70425-0.56638-0.30126-0.15005-0.65469-0.25624-1.061-0.31832-0.40633-0.067263-0.84092-0.10077-1.3034-0.10077-0.4484 0-0.86856 0.03351-1.2609 0.10077-0.39934 0.062091-0.74644 0.16828-1.0407 0.31832-0.29425 0.14487-0.52506 0.33354-0.69322 0.56638-0.16871 0.22427-0.25412 0.49777-0.26032 0.81805h-0.0024v1.7322h5.94e-4v0.54881c5.1e-5 0.30528-0.12951 0.52796-0.38872 0.66766-0.25222 0.1397-0.60217 0.20929-1.0506 0.20929-0.46238 0-0.83022-0.06959-1.1034-0.20929-0.26623-0.1397-0.39978-0.36241-0.39978-0.66766v-2.281h-0.0024c-0.0062-0.32028-0.09164-0.59379-0.26035-0.81805-0.16814-0.23284-0.39895-0.42151-0.69322-0.56638-0.29425-0.15005-0.64134-0.25624-1.0407-0.31832-0.39235-0.067261-0.81251-0.1007-1.2609-0.1007z" fill="currentColor"/>
</svg>
